<svg width="166" height="20" viewBox="0 0 166 20" fill="none" xmlns="http://www.w3.org/2000/svg">
<path fill-rule="evenodd" clip-rule="evenodd" d="M11.2323 1.5259C13.9694 -0.197612 17.043 -0.544326 19.3779 0.914712C23.0665 3.21958 23.5145 9.15648 20.3785 14.1751C18.0663 17.8754 14.4514 20.0429 11.2332 20.0027C8.01499 20.043 4.39995 17.8755 2.0877 14.1751C-1.04829 9.15648 -0.600302 3.21969 3.08827 0.914712C5.42283 -0.544095 8.49563 -0.197023 11.2323 1.5259ZM2.33581 9.8017C2.64862 10.9729 3.13655 12.0902 3.7831 13.1157C4.19579 13.7781 4.67015 14.4 5.19985 14.9731C4.53539 12.2662 5.11508 8.87834 7.02093 5.82837C7.70836 4.72241 8.54513 3.71661 9.50756 2.83944C9.25635 2.70758 8.99859 2.58859 8.73528 2.48294C7.00758 1.79595 5.37846 1.8411 4.14769 2.61012C2.91692 3.37914 2.16217 4.82367 2.02229 6.67767C1.95258 7.7292 2.05854 8.78499 2.33581 9.8017ZM18.6831 13.1157C19.3296 12.0902 19.8175 10.9729 20.1304 9.80168C20.4076 8.78497 20.5136 7.72918 20.4439 6.67765C20.304 4.82367 19.5492 3.3791 18.3185 2.6101C17.0878 1.8411 15.4586 1.79593 13.7309 2.48294C12.7552 2.88124 11.8527 3.43931 11.0605 4.1342C9.22644 5.73895 7.90746 7.84985 7.26921 10.2018C6.9919 11.2185 6.8859 12.2743 6.95557 13.3258C7.09547 15.1798 7.8503 16.6243 9.08094 17.3934C9.71532 17.7816 10.4424 17.9921 11.1861 18.0028L11.2066 18.0028H11.2068L11.2133 18.0029L11.2297 18.0028L11.2462 18.003L11.2586 18.0029L11.2806 18.0028C12.0241 17.992 12.7511 17.7815 13.3853 17.3934C14.6161 16.6243 15.3708 15.1798 15.5107 13.3258C15.5804 12.2743 15.4745 11.2185 15.1972 10.2018C15.1218 9.91514 15.0334 9.63056 14.9347 9.34795L11.9912 11.1873C11.9498 11.2131 11.9038 11.2306 11.8557 11.2386C11.8076 11.2467 11.7584 11.2452 11.7109 11.2342C11.6634 11.2232 11.6185 11.203 11.5788 11.1747C11.5391 11.1464 11.5053 11.1105 11.4795 11.0691L10.8136 10.0035C10.7614 9.91999 10.7445 9.81916 10.7667 9.7232C10.7888 9.62724 10.8482 9.54401 10.9317 9.49182L15.4733 6.65395C15.5166 6.62607 15.5653 6.60761 15.6162 6.59976C15.6671 6.5919 15.7191 6.59484 15.7688 6.60836C15.8184 6.62189 15.8647 6.64571 15.9046 6.67828C15.9445 6.71085 15.9771 6.75145 16.0003 6.79743C17.4587 9.58114 17.861 12.5497 17.2666 14.9728C17.7962 14.3997 18.2704 13.778 18.6831 13.1157ZM45.214 7.87601C44.6901 7.6679 44.1301 7.56588 43.5664 7.57586C43.004 7.56755 42.4455 7.67083 41.9233 7.87974C41.401 8.08865 40.9254 8.39904 40.5238 8.79295C40.1223 9.18687 39.8029 9.65648 39.584 10.1746C39.3651 10.6928 39.2512 11.2492 39.2487 11.8117C39.2487 14.1668 41.1786 15.9985 43.5664 15.9985C45.9706 15.9985 47.9005 14.1668 47.9005 11.8117C47.8976 11.248 47.7827 10.6904 47.5627 10.1714C47.3426 9.65239 47.0217 9.18224 46.6185 8.78821C46.2153 8.39419 45.7379 8.08412 45.214 7.87601ZM44.6947 13.4789C44.3577 13.6915 43.9648 13.7985 43.5664 13.7862C43.3078 13.7849 43.052 13.7321 42.814 13.6309C42.576 13.5297 42.3605 13.3822 42.1801 13.1969C41.9997 13.0116 41.858 12.7922 41.7632 12.5516C41.6685 12.3109 41.6225 12.0539 41.6281 11.7953C41.6265 11.3968 41.744 11.0069 41.9655 10.6756C42.187 10.3443 42.5024 10.0868 42.8713 9.93599C43.2402 9.78521 43.6457 9.74807 44.0359 9.82934C44.426 9.91061 44.783 10.1066 45.061 10.3921C45.339 10.6777 45.5253 11.0397 45.5961 11.4319C45.6669 11.8241 45.6189 12.2285 45.4583 12.5932C45.2977 12.9579 45.0318 13.2663 44.6947 13.4789ZM53.2847 15.7697C56.801 15.7697 59.2443 13.4308 59.2443 10.029L59.2443 10.029C59.2443 6.61087 56.8011 4.32109 53.2848 4.32109H48.8914C48.8439 4.32012 48.7967 4.32877 48.7526 4.34652C48.7085 4.36427 48.6684 4.39075 48.6348 4.42438C48.6012 4.458 48.5748 4.49807 48.557 4.54218C48.5393 4.58629 48.5307 4.63352 48.5317 4.68105V15.3934C48.529 15.4422 48.5364 15.4909 48.5533 15.5366C48.5703 15.5824 48.5964 15.6242 48.6301 15.6594C48.6638 15.6947 48.7044 15.7227 48.7493 15.7416C48.7943 15.7606 48.8426 15.7701 48.8914 15.7697H53.2847ZM53.3892 6.57807C55.3354 6.57807 56.6764 8.03372 56.6764 10.029H56.6764C56.6764 11.9916 55.3354 13.5125 53.3892 13.5125H50.9849V6.57807H53.3892ZM65.9958 8.6552C65.6197 8.03374 64.7693 7.57584 63.7061 7.57584L63.7061 7.57588C61.6455 7.57588 59.7156 9.19492 59.7156 11.779C59.7156 14.3467 61.6292 15.9985 63.6898 15.9985C64.7529 15.9985 65.6197 15.5407 65.9958 14.9192V15.4262C65.9963 15.5172 66.0327 15.6042 66.097 15.6685C66.1614 15.7328 66.2484 15.7692 66.3394 15.7697H67.9912C68.0366 15.7708 68.0817 15.7627 68.1239 15.7458C68.1661 15.7289 68.2044 15.7037 68.2365 15.6716C68.2686 15.6394 68.2939 15.6011 68.3107 15.559C68.3276 15.5168 68.3357 15.4716 68.3346 15.4262V8.16465C68.336 8.11838 68.3282 8.07229 68.3117 8.02906C68.2951 7.98583 68.2702 7.94632 68.2382 7.91283C68.2062 7.87934 68.168 7.85253 68.1255 7.83397C68.0831 7.8154 68.0375 7.80545 67.9912 7.8047H66.3394C66.2478 7.81171 66.162 7.85235 66.0986 7.91881C66.0351 7.98526 65.9985 8.07282 65.9958 8.16465V8.6552ZM66.0639 11.7954C66.0639 12.9621 65.243 13.8025 64.1482 13.8025C63.0536 13.8025 62.2326 12.9621 62.2326 11.7954C62.2326 10.6288 63.0533 9.78841 64.1482 9.78841C65.243 9.78841 66.0639 10.6288 66.0639 11.7954ZM75.2523 8.62264C74.8761 8.03387 74.0094 7.57588 72.9301 7.57588C70.8856 7.57584 68.9884 9.19488 68.9884 11.7791C68.9884 14.3468 70.9019 15.9986 72.9627 15.9986C74.0256 15.9986 74.827 15.5408 75.2687 14.9192V15.4263C75.2693 15.5172 75.3056 15.6042 75.3699 15.6685C75.4341 15.7328 75.5212 15.7691 75.6121 15.7696H77.2641C77.3095 15.7708 77.3546 15.7626 77.3968 15.7458C77.4389 15.7289 77.4772 15.7037 77.5094 15.6716C77.5415 15.6395 77.5667 15.6012 77.5836 15.559C77.6005 15.5169 77.6086 15.4717 77.6075 15.4263V4.66463C77.6086 4.61922 77.6005 4.57407 77.5836 4.53189C77.5668 4.48972 77.5415 4.45141 77.5094 4.4193C77.4773 4.38718 77.439 4.36193 77.3968 4.34506C77.3546 4.3282 77.3095 4.32008 77.2641 4.3212H75.6121C75.5658 4.3198 75.5197 4.3276 75.4765 4.34416C75.4333 4.36072 75.3938 4.38571 75.3604 4.41766C75.3269 4.44962 75.3001 4.48791 75.2816 4.5303C75.263 4.5727 75.2531 4.61836 75.2523 4.66463V8.62264ZM75.3284 11.7954C75.3284 12.9744 74.511 13.8235 73.4212 13.8235C72.3312 13.8235 71.5139 12.9742 71.5139 11.7954C71.5139 10.6166 72.3316 9.76742 73.4212 9.76742C74.5109 9.76742 75.3284 10.6165 75.3284 11.7954ZM84.5255 8.62259C84.1492 8.03383 83.2824 7.57584 82.2031 7.57584C80.1585 7.57584 78.2614 9.19488 78.2614 11.7791C78.2614 14.3468 80.1748 15.9986 82.2356 15.9986C83.2987 15.9986 84.1001 15.5408 84.5417 14.9192V15.4263C84.5422 15.5172 84.5786 15.6043 84.6429 15.6685C84.7072 15.7328 84.7942 15.7691 84.8851 15.7696H86.5371C86.5825 15.7707 86.6277 15.7626 86.6698 15.7458C86.712 15.7289 86.7503 15.7037 86.7824 15.6716C86.8145 15.6395 86.8398 15.6012 86.8566 15.559C86.8735 15.5168 86.8816 15.4717 86.8805 15.4263V4.66463C86.8817 4.61923 86.8735 4.57408 86.8567 4.53192C86.8398 4.48975 86.8146 4.45146 86.7824 4.41934C86.7503 4.38723 86.712 4.36197 86.6699 4.3451C86.6277 4.32823 86.5826 4.3201 86.5372 4.3212H84.8852C84.8389 4.3198 84.7929 4.3276 84.7497 4.34416C84.7064 4.36072 84.667 4.38571 84.6335 4.41766C84.6 4.44962 84.5732 4.48791 84.5547 4.5303C84.5361 4.5727 84.5262 4.61836 84.5255 4.66463V8.62259ZM84.6013 11.7954C84.6013 12.9744 83.784 13.8235 82.6942 13.8235C81.6041 13.8235 80.7869 12.9742 80.7869 11.7954C80.7869 10.6166 81.6045 9.76742 82.6942 9.76742C83.7839 9.76742 84.6013 10.6165 84.6013 11.7954ZM93.62 7.80486H95.2681L95.2681 7.80478C95.5952 7.80478 95.6933 8.03383 95.5788 8.36103L93.1134 16.8151C92.6391 18.3195 91.5759 19.2189 89.9241 19.2189C89.2385 19.2377 88.5596 19.0795 87.953 18.7593C87.6413 18.5812 87.3814 18.4182 87.3814 18.158C87.3853 18.0128 87.4371 17.873 87.5285 17.7603L88.0178 17.0272C88.1559 16.8231 88.2583 16.7565 88.4064 16.7565C88.5239 16.7594 88.6376 16.7988 88.7317 16.8692C89.027 17.0984 89.3871 17.2282 89.7606 17.2402C90.2686 17.2402 90.6576 17.0771 90.8664 16.4711L91.0783 15.7697H90.0801C89.9782 15.7721 89.8786 15.7392 89.7981 15.6767C89.7177 15.6141 89.6613 15.5257 89.6385 15.4264L87.4339 8.36103C87.3521 8.083 87.4274 7.80486 87.8362 7.80486H89.5736C89.786 7.80486 89.9342 7.87795 90.0281 8.18107L91.6572 13.8698L93.1786 8.18107C93.1947 8.07581 93.2482 7.97989 93.3293 7.91081C93.4103 7.84174 93.5135 7.80413 93.62 7.80486ZM32.4432 15.9885C34.1455 15.9885 35.6506 15.3006 36.5163 14.207V15.3928C36.5155 15.442 36.5246 15.4909 36.5431 15.5366C36.5616 15.5822 36.589 15.6237 36.6238 15.6585C36.6587 15.6933 36.7001 15.7208 36.7458 15.7393C36.7914 15.7577 36.8403 15.7668 36.8896 15.766H38.2527C38.302 15.7668 38.3509 15.7577 38.3965 15.7393C38.4422 15.7208 38.4837 15.6933 38.5185 15.6585C38.5533 15.6237 38.5808 15.5822 38.5992 15.5366C38.6177 15.4909 38.6268 15.442 38.626 15.3928V10.8767C38.6265 10.8283 38.617 10.7803 38.5982 10.7357C38.5794 10.6911 38.5516 10.6509 38.5167 10.6174C38.4817 10.584 38.4402 10.558 38.3948 10.5412C38.3494 10.5244 38.3011 10.5171 38.2527 10.5198H34.0398C33.9906 10.5189 33.9417 10.528 33.896 10.5465C33.8504 10.565 33.8089 10.5924 33.7741 10.6273C33.7393 10.6621 33.7118 10.7036 33.6933 10.7492C33.6749 10.7949 33.6658 10.8438 33.6666 10.893V12.1201C33.6658 12.1693 33.6749 12.2182 33.6933 12.2639C33.7118 12.3095 33.7393 12.351 33.7741 12.3858C33.8089 12.4207 33.8504 12.4481 33.896 12.4666C33.9417 12.4851 33.9906 12.4941 34.0398 12.4933H35.4778C35.0272 13.1186 34.0607 13.6918 32.8486 13.6918C30.5462 13.6918 29.3069 12.0535 29.3069 10.061C29.3069 8.00551 30.7604 6.41938 32.791 6.41938C34.3561 6.41938 35.3772 7.15789 35.9439 8.24407C35.9822 8.33531 36.049 8.41177 36.1342 8.46209C36.2316 8.49869 36.3393 8.49711 36.4356 8.45767L38.0284 7.84429C38.2454 7.76866 38.3132 7.69096 38.3132 7.58748C38.311 7.52492 38.297 7.46335 38.2718 7.40603C37.3794 5.23049 35.3677 4.14852 32.8524 4.14852C29.4445 4.14852 26.7472 6.60127 26.7472 10.1599C26.7472 13.584 29.2463 15.9885 32.4432 15.9885ZM103.244 4.32378C105.571 4.32378 107.139 5.52783 107.139 7.58863C107.139 9.68971 105.571 10.8614 103.195 10.8614H101.296V15.7506H99.9547V4.32378H103.244ZM105.757 7.61271C105.757 6.31974 104.884 5.5521 103.203 5.5521H101.296V9.633H103.203C104.916 9.633 105.757 8.92185 105.757 7.61271ZM107.898 13.4796C107.898 14.9747 108.964 15.8879 110.661 15.8879C111.25 15.9044 111.832 15.7567 112.342 15.4612C112.851 15.1657 113.268 14.7342 113.546 14.2151L113.635 15.7505H114.702V10.9665C114.702 8.71175 113.546 7.5319 111.502 7.5319C110.072 7.5319 109.029 8.06527 108.213 9.22895L109.199 9.94823C109.421 9.54967 109.747 9.2193 110.143 8.99283C110.539 8.76637 110.989 8.65241 111.445 8.66327C112.763 8.66327 113.49 9.36639 113.49 11.0473H111.316C109.045 11.0473 107.898 11.9765 107.898 13.4796ZM113.49 12.0089V12.3726H113.49C113.457 13.0309 113.17 13.6508 112.689 14.1015C112.208 14.5523 111.571 14.7987 110.912 14.7888C109.805 14.7888 109.207 14.2474 109.207 13.415C109.207 12.5665 109.853 12.0089 111.324 12.0089H113.49ZM118.809 15.7263L115.415 7.66935H116.87L119.456 14.1019L121.904 7.66935H123.262L118.785 19.2092H117.379L118.809 15.7263ZM125.839 8.93802V7.66936L124.562 7.66929V15.7504H125.839V11.0148C125.839 9.48744 126.647 8.67132 127.9 8.67132C129.047 8.67132 129.702 9.39865 129.702 10.8289V15.7504H130.987V10.9502C130.987 9.42284 131.811 8.67136 133.048 8.67136C134.187 8.67136 134.85 9.3987 134.85 10.829V15.7505H136.126V10.6594C136.126 8.63092 135.052 7.53188 133.347 7.53188C132.183 7.53188 131.31 7.98443 130.68 9.07545C130.491 8.60125 130.159 8.19769 129.731 7.921C129.302 7.64431 128.797 7.50828 128.288 7.53188C127.79 7.51847 127.298 7.64264 126.866 7.89071C126.434 8.13879 126.079 8.50117 125.839 8.93802ZM137.567 11.7503C137.567 9.23711 139.078 7.53185 141.292 7.53185C143.668 7.53185 144.824 9.35017 144.824 11.33C144.824 11.5685 144.802 11.8066 144.759 12.0411H138.916C139.038 13.8595 140.015 14.7322 141.454 14.7322C141.882 14.7476 142.308 14.6646 142.699 14.4894C143.09 14.3143 143.435 14.0517 143.708 13.722L144.597 14.5139C144.204 14.9653 143.715 15.323 143.165 15.5607C142.616 15.7984 142.02 15.9102 141.421 15.8879C139.062 15.8879 137.567 14.2554 137.567 11.7503ZM138.932 11.0876H143.555C143.523 9.59268 142.658 8.63095 141.268 8.63095C140.064 8.63089 139.102 9.46337 138.932 11.0876ZM147.598 8.93801V7.66935L146.32 7.66933V15.7504H147.597V11.0149C147.597 9.48748 148.438 8.67135 149.755 8.67135C150.919 8.67135 151.646 9.39869 151.646 10.829V15.7505H152.923V10.6594C152.923 8.64708 151.832 7.53187 150.102 7.53187C149.598 7.52161 149.099 7.64657 148.659 7.89381C148.218 8.14105 147.852 8.50157 147.598 8.93801ZM155.243 13.4393V8.73613H153.909V7.66936H155.251V4.84095H156.512V7.66936H158.718V8.73613H156.512V13.2939C156.512 14.3606 156.964 14.7484 157.74 14.7484C158.083 14.7423 158.423 14.6738 158.742 14.5463V15.702C158.366 15.8221 157.973 15.8848 157.578 15.8879C156.075 15.8879 155.243 15.0232 155.243 13.4393ZM160.655 13.3018L159.612 13.8595C160.137 15.1443 161.212 15.8879 162.909 15.888C164.639 15.888 165.883 15.0072 165.883 13.4474C165.883 11.6978 164.424 11.3216 163.138 10.9901C162.125 10.729 161.22 10.4957 161.22 9.64125C161.22 9.02708 161.77 8.59071 162.756 8.59071C163.158 8.57046 163.557 8.67129 163.901 8.88015C164.246 9.08902 164.519 9.39634 164.687 9.76239L165.713 9.19672C165.156 8.13824 164.146 7.532 162.756 7.532C161.035 7.532 159.984 8.45325 159.984 9.72206C159.984 11.4409 161.361 11.7849 162.613 12.0976C163.657 12.3583 164.614 12.5973 164.614 13.5929C164.614 14.3039 164.016 14.7969 162.909 14.7969C161.851 14.7969 161.091 14.3121 160.655 13.3018Z" fill="#111111"/>
</svg>
